<svg xmlns="http://www.w3.org/2000/svg" width="24" height="24" viewBox="0 0 24 24"><path fill="currentColor" d="M7.5 12a4.5 4.5 0 1 0 9 0a4.5 4.5 0 1 0-9 0M12 5.83a1 1 0 0 0 1-1V1a1 1 0 0 0-2 0v3.83a1 1 0 0 0 1 1m0 12.34a1 1 0 0 0-1 1V23a1 1 0 0 0 2 0v-3.83a1 1 0 0 0-1-1M6.22 7.64a1 1 0 0 0 1.41 0a1 1 0 0 0 0-1.42l-2.7-2.7a1 1 0 0 0-1.42 1.41Zm11.56 8.73a1 1 0 0 0-1.41 0a1 1 0 0 0 0 1.41l2.7 2.71a1 1 0 0 0 1.42 0a1 1 0 0 0 0-1.42ZM5.83 12.5a1 1 0 0 0-1-1H1a1 1 0 0 0 0 2h3.83a1 1 0 0 0 1-1m17.17-1h-3.83a1 1 0 0 0 0 2H23a1 1 0 0 0 0-2M6.22 16.37l-2.71 2.7a1 1 0 0 0 0 1.42a1 1 0 0 0 1.42 0l2.7-2.71a1 1 0 0 0-1.41-1.41m10.85-8.45a1 1 0 0 0 .71-.28l2.71-2.71a1 1 0 1 0-1.42-1.41l-2.7 2.7a1 1 0 0 0 0 1.42a1 1 0 0 0 .7.28"/></svg>