<svg xmlns="http://www.w3.org/2000/svg" viewBox="0 0 24 24">
	<g fill="none">
		<path fill="#ffef5e" d="m20.094 15.352l2.59-2.59a1.08 1.08 0 0 0 0-1.526l-2.59-2.59v-3.66a1.08 1.08 0 0 0-1.08-1.08h-3.659l-2.59-2.59a1.08 1.08 0 0 0-1.526 0l-2.59 2.59H4.985a1.08 1.08 0 0 0-1.079 1.08v3.662l-2.59 2.59a1.08 1.08 0 0 0 0 1.526l2.59 2.59v3.66c0 .597.483 1.08 1.08 1.08h3.662l2.59 2.59a1.08 1.08 0 0 0 1.526 0l2.59-2.59h3.663a1.08 1.08 0 0 0 1.08-1.08z" />
		<path fill="#ffbc44" d="M11.46 5.525c4.317 0 6.476 2.899 6.476 6.475s-2.159 6.475-6.476 6.475z" />
		<path stroke="#191919" stroke-linecap="round" stroke-linejoin="round" d="m20.094 15.352l2.59-2.59a1.08 1.08 0 0 0 0-1.526l-2.59-2.59v-3.66a1.08 1.08 0 0 0-1.08-1.08h-3.659l-2.59-2.59a1.08 1.08 0 0 0-1.526 0l-2.59 2.59H4.985a1.08 1.08 0 0 0-1.079 1.08v3.662l-2.59 2.59a1.08 1.08 0 0 0 0 1.526l2.59 2.59v3.66c0 .597.483 1.08 1.08 1.08h3.662l2.59 2.59a1.08 1.08 0 0 0 1.526 0l2.59-2.59h3.663a1.08 1.08 0 0 0 1.08-1.08z" />
		<path stroke="#191919" stroke-linecap="round" stroke-linejoin="round" d="M11.46 5.525c4.317 0 6.476 2.899 6.476 6.475s-2.159 6.475-6.476 6.475z" />
	</g>
</svg>
