<svg xmlns="http://www.w3.org/2000/svg" viewBox="0 0 24 24">
	<g fill="none" stroke="currentColor" stroke-linecap="round" stroke-linejoin="round" stroke-width="1.5">
		<path d="m12.892 2.81l8.596 6.785A1.347 1.347 0 0 1 20.653 12H20v3.5c0 2.828 0 4.243-.879 5.121c-.878.879-2.293.879-5.121.879h-4c-2.828 0-4.243 0-5.121-.879C4 19.743 4 18.328 4 15.5V12h-.653a1.347 1.347 0 0 1-.835-2.405l8.596-6.785a1.44 1.44 0 0 1 1.784 0" />
		<path d="M14.5 21.5V17c0-.935 0-1.402-.201-1.75a1.5 1.5 0 0 0-.549-.549c-.348-.201-.815-.201-1.75-.201s-1.402 0-1.75.201a1.5 1.5 0 0 0-.549.549c-.201.348-.201.815-.201 1.75v4.5" />
	</g>
</svg>
