<svg xmlns="http://www.w3.org/2000/svg" width="1em" height="1em" viewBox="0 0 24 24">
	<path d="M0 0h24v24H0z" fill="none" />
	<g fill="none" stroke="#000" stroke-width="1.5">
		<path d="M15.5 11.5a3.5 3.5 0 1 1-7 0a3.5 3.5 0 0 1 7 0Z" />
		<path stroke-linecap="round" stroke-linejoin="round" d="M21 13.6q.474-.132 1-.133V9.533c-2.857 0-4.714-3.103-3.268-5.566L15.268 2c-1.464 2.494-5.07 2.494-6.534 0L5.27 3.967C6.716 6.43 4.857 9.533 2 9.533v3.934c2.857 0 4.714 3.103 3.268 5.566L8.732 21A3.76 3.76 0 0 1 12 19.129" />
		<path stroke-linejoin="round" d="m18.5 15l.258.697c.338.914.507 1.371.84 1.704c.334.334.791.503 1.705.841L22 18.5l-.697.258c-.914.338-1.371.507-1.704.84c-.334.334-.503.791-.841 1.705L18.5 22l-.258-.697c-.338-.914-.507-1.371-.84-1.704c-.334-.334-.791-.503-1.705-.841L15 18.5l.697-.258c.914-.338 1.371-.507 1.704-.84c.334-.334.503-.791.841-1.705z" />
	</g>
</svg>
