<svg xmlns="http://www.w3.org/2000/svg" viewBox="0 0 24 24">
	<path fill="currentColor" fill-rule="evenodd" d="M11.602 18.636a.75.75 0 0 0 .398.11a.75.75 0 0 0 .398-.11l1.135-.681a8.3 8.3 0 0 1 7.36-.59c.89.356 1.857-.3 1.857-1.257V4.45c0-.578-.352-1.097-.889-1.312a10.7 10.7 0 0 0-9.48.76L12 4.124l-.382-.229a10.7 10.7 0 0 0-9.48-.76A1.41 1.41 0 0 0 1.25 4.45v11.66c0 .957.967 1.612 1.857 1.256a8.3 8.3 0 0 1 7.36.59zM2.75 4.508v11.387a9.8 9.8 0 0 1 8.489.774l.011.006V5.425l-.403-.242a9.2 9.2 0 0 0-8.097-.675m10.011 12.16l-.011.007V5.425l.403-.242a9.2 9.2 0 0 1 8.097-.675v11.387a9.8 9.8 0 0 0-8.489.774" clip-rule="evenodd" />
	<path fill="currentColor" d="M9.275 19.042a6.5 6.5 0 0 0-6.55 0l-.103.06a.75.75 0 1 0 .756 1.296l.103-.06a5 5 0 0 1 5.038 0l1.088.634a4.75 4.75 0 0 0 4.786 0l1.088-.634a5 5 0 0 1 5.038 0l.103.06a.75.75 0 0 0 .756-1.296l-.103-.06a6.5 6.5 0 0 0-6.55 0l-1.087.634a3.25 3.25 0 0 1-3.276 0z" />
</svg>
