<?xml version="1.0" encoding="utf-8"?>
<!-- Generator: Adobe Illustrator 30.2.1, SVG Export Plug-In . SVG Version: 9.03 Build 0)  -->
<svg version="1.1" baseProfile="basic" id="Camada_1"
	 xmlns="http://www.w3.org/2000/svg" xmlns:xlink="http://www.w3.org/1999/xlink" x="0px" y="0px" viewBox="0 0 48 48"
	 xml:space="preserve">
<g>
	<g id="XMLID_6912_">
		<g id="XMLID_6922_">
			<path d="M24,30.79c-1.58,0-2.86-1.28-2.86-2.86c0-1.58,1.28-2.86,2.86-2.86s2.86,1.28,2.86,2.86
				C26.86,29.51,25.58,30.79,24,30.79z M24,26.5c-0.79,0-1.43,0.64-1.43,1.43c0,0.79,0.64,1.43,1.43,1.43s1.43-0.64,1.43-1.43
				C25.43,27.14,24.79,26.5,24,26.5z"/>
		</g>
		<g id="XMLID_6921_">
			<path d="M26.15,41.52h-3.58c-0.39,0-0.72-0.32-0.72-0.72v-5.13c0-0.21,0.09-0.41,0.25-0.55c0.16-0.14,0.37-0.19,0.58-0.16
				c1.09,0.18,2.22,0.13,3.28-0.14c0.21-0.06,0.44-0.01,0.62,0.13c0.17,0.14,0.28,0.34,0.28,0.57v5.28
				C26.86,41.2,26.54,41.52,26.15,41.52z M23.28,40.09h2.15V36.4c-0.71,0.11-1.43,0.14-2.15,0.08V40.09z"/>
		</g>
		<g id="XMLID_6920_">
			<path d="M24,36.51c-0.52,0-1.04-0.04-1.55-0.13c-2.14-0.36-4.1-1.47-5.52-3.13c-1.43-1.68-2.22-3.82-2.22-6.03v-8.58
				c0-0.39,0.32-0.72,0.72-0.72h17.16c0.39,0,0.72,0.32,0.72,0.72v8.58c0,4.24-2.87,7.95-6.97,9C25.57,36.42,24.79,36.51,24,36.51z
				 M16.13,19.35v7.87c0,3.86,2.76,7.12,6.55,7.76c1.09,0.18,2.22,0.13,3.28-0.14c3.47-0.89,5.9-4.03,5.9-7.62v-7.87H16.13z"/>
		</g>
		<g id="XMLID_6919_">
			<path d="M21.14,16.49h-2.86c-0.39,0-0.72-0.32-0.72-0.72V8.63c0-1.18,0.96-2.15,2.15-2.15c1.18,0,2.15,0.96,2.15,2.15v7.15
				C21.85,16.17,21.53,16.49,21.14,16.49z M18.99,15.06h1.43V8.63c0-0.39-0.32-0.72-0.72-0.72s-0.72,0.32-0.72,0.72V15.06z"/>
		</g>
		<g id="XMLID_6918_">
			<path d="M29.72,16.49h-2.86c-0.39,0-0.72-0.32-0.72-0.72V8.63c0-1.18,0.96-2.15,2.15-2.15c1.18,0,2.15,0.96,2.15,2.15v7.15
				C30.44,16.17,30.12,16.49,29.72,16.49z M27.58,15.06h1.43V8.63c0-0.39-0.32-0.72-0.72-0.72s-0.72,0.32-0.72,0.72V15.06z"/>
		</g>
		<g id="XMLID_6915_">
			<path d="M34.01,19.35H13.99c-0.39,0-0.72-0.32-0.72-0.72v-2.86c0-0.39,0.32-0.72,0.72-0.72h20.02c0.39,0,0.72,0.32,0.72,0.72
				v2.86C34.73,19.03,34.41,19.35,34.01,19.35z M14.7,17.92H33.3v-1.43H14.7V17.92z"/>
		</g>
		<g id="XMLID_6914_">
			<path d="M26.15,22.21H15.42c-0.39,0-0.72-0.32-0.72-0.72c0-0.39,0.32-0.72,0.72-0.72h10.73c0.39,0,0.72,0.32,0.72,0.72
				C26.86,21.89,26.54,22.21,26.15,22.21z"/>
		</g>
		<g id="XMLID_6913_">
			<path d="M32.58,22.21h-3.58c-0.39,0-0.72-0.32-0.72-0.72c0-0.39,0.32-0.72,0.72-0.72h3.58c0.39,0,0.72,0.32,0.72,0.72
				C33.3,21.89,32.98,22.21,32.58,22.21z"/>
		</g>
	</g>
</g>
</svg>
