<svg width="48" height="48" viewBox="0 0 48 48" fill="none" xmlns="http://www.w3.org/2000/svg">
<path d="M4.73291 30.2856C4.73291 32.3316 5.5457 34.2938 6.99247 35.7406C8.43924 37.1874 10.4015 38.0002 12.4475 38.0002H33.6627C34.9291 37.9897 36.181 37.7298 37.3469 37.2355C38.5129 36.7412 39.57 36.022 40.4581 35.1191C41.3461 34.2162 42.0476 33.1473 42.5225 31.9733C42.9974 30.7993 43.2364 29.5432 43.2259 28.2769C43.2154 27.0105 42.9556 25.7586 42.4612 24.5927C41.9669 23.4267 41.2478 22.3695 40.3449 21.4815C39.442 20.5935 38.373 19.892 37.199 19.4171C36.025 18.9422 34.769 18.7031 33.5026 18.7137C33.2649 17.1914 32.7257 15.732 31.9167 14.4208C31.1076 13.1097 30.045 11.9732 28.791 11.0781C27.5371 10.1829 26.117 9.54712 24.6142 9.2079C23.1113 8.86868 21.5558 8.83288 20.0389 9.10259C18.5221 9.37231 17.0743 9.94212 15.7805 10.7786C14.4866 11.6151 13.3728 12.7015 12.5043 13.974C11.6358 15.2465 11.03 16.6797 10.7226 18.1893C10.4151 19.699 10.412 21.2549 10.7137 22.7658C9.0132 23.158 7.49596 24.1151 6.4097 25.4809C5.32343 26.8467 4.73233 28.5405 4.73291 30.2856Z" stroke="black" stroke-width="3.32661"/>
</svg>
