<svg width="48" height="48" viewBox="0 0 48 48" fill="none" xmlns="http://www.w3.org/2000/svg">
<path d="M24.0799 10.8468C28.2985 10.8468 32.3162 12.4578 35.3294 15.4784C41.5569 21.721 41.5569 31.9911 35.3294 38.2338C31.7135 42.0599 26.6914 43.4695 21.8702 42.8654L22.8746 38.8379C26.2896 39.2406 29.9056 38.0324 32.5171 35.4145C37.1374 30.7829 37.1374 23.1306 32.5171 18.2976C30.3073 16.0825 27.0932 14.8743 24.0799 14.8743V24.1375L14.0357 14.0688L24.0799 4V10.8468ZM12.6295 38.2338C7.40648 32.998 6.60294 24.943 10.2189 18.7004L13.2321 21.721C11.0224 26.1513 11.8259 31.7898 15.6427 35.4145C16.6472 36.4214 17.8525 37.2269 19.2587 37.831L18.0534 41.8585C16.0445 41.053 14.2366 39.8448 12.6295 38.2338Z" fill="black"/>
</svg>
