<svg width="48" height="48" viewBox="0 0 48 48" fill="none" xmlns="http://www.w3.org/2000/svg">
<path d="M21.0417 36.7632C20.2361 35.9387 19.8333 34.9294 19.8333 33.7353C19.8333 32.5412 20.2361 31.5319 21.0417 30.7074C21.8472 29.8828 22.8333 29.4706 24 29.4706C25.1667 29.4706 26.1528 29.8828 26.9583 30.7074C27.7639 31.5319 28.1667 32.5412 28.1667 33.7353C28.1667 34.9294 27.7639 35.9387 26.9583 36.7632C26.1528 37.5877 25.1667 38 24 38C22.8333 38 21.8472 37.5877 21.0417 36.7632ZM14.5833 28.3618L11.0833 24.6941C12.7222 23.0167 14.6461 21.6878 16.855 20.7075C19.0639 19.7272 21.4456 19.2364 24 19.2353C26.5544 19.2342 28.9367 19.7317 31.1467 20.7279C33.3567 21.7242 35.28 23.0747 36.9167 24.7794L33.4167 28.3618C32.1944 27.1108 30.7778 26.1299 29.1667 25.4191C27.5556 24.7083 25.8333 24.3529 24 24.3529C22.1667 24.3529 20.4444 24.7083 18.8333 25.4191C17.2222 26.1299 15.8056 27.1108 14.5833 28.3618ZM7.5 21.1118L4 17.5294C6.55556 14.8569 9.54167 12.7672 12.9583 11.2603C16.375 9.75343 20.0556 9 24 9C27.9444 9 31.625 9.75343 35.0417 11.2603C38.4583 12.7672 41.4444 14.8569 44 17.5294L40.5 21.1118C38.3611 18.9225 35.8822 17.2098 33.0633 15.9736C30.2444 14.7375 27.2233 14.1188 24 14.1176C20.7767 14.1165 17.7561 14.7352 14.9383 15.9736C12.1206 17.2121 9.64111 18.9248 7.5 21.1118Z" fill="black"/>
</svg>
