<svg xmlns="http://www.w3.org/2000/svg" viewBox="0 0 32 32">
	<g fill="none">
		<path fill="url(#SVGFiLOzk8W)" d="M12 6.5a3.5 3.5 0 1 1 7 0v19a3.5 3.5 0 1 1-7 0z" />
		<path fill="url(#SVGFmNrZdDm)" d="M22 12.5a3.5 3.5 0 1 1 7 0v13a3.5 3.5 0 1 1-7 0z" />
		<path fill="url(#SVGxzMFt0zv)" d="M5.5 15A3.5 3.5 0 0 0 2 18.5v7a3.5 3.5 0 1 0 7 0v-7A3.5 3.5 0 0 0 5.5 15" />
		<defs>
			<linearGradient id="SVGFiLOzk8W" x1="18.417" x2="14.222" y1="24.233" y2="2.819" gradientUnits="userSpaceOnUse">
				<stop stop-color="#6d37cd" />
				<stop offset="1" stop-color="#ea71ef" />
			</linearGradient>
			<linearGradient id="SVGFmNrZdDm" x1="28.417" x2="25.896" y1="25.333" y2="8.608" gradientUnits="userSpaceOnUse">
				<stop stop-color="#e23cb4" />
				<stop offset="1" stop-color="#ea71ef" />
			</linearGradient>
			<linearGradient id="SVGxzMFt0zv" x1="2.875" x2="16.259" y1="15.583" y2="23.499" gradientUnits="userSpaceOnUse">
				<stop stop-color="#36dff1" />
				<stop offset="1" stop-color="#0078d4" />
			</linearGradient>
		</defs>
	</g>
</svg>
