<svg xmlns="http://www.w3.org/2000/svg" viewBox="0 0 20 20">
	<g fill="none">
		<path fill="url(#SVGJZgUOdCP)" fill-rule="evenodd" d="M8.293.293a1 1 0 0 1 1.414 0l2.5 2.5a1 1 0 0 1 0 1.414l-2.5 2.5a1 1 0 0 1-1.414-1.414l.701-.701a5.502 5.502 0 0 0-2.508 9.64a1 1 0 0 1-1.279 1.537a7.501 7.501 0 0 1 3.928-13.22l-.842-.842a1 1 0 0 1 0-1.414m5.12 4.085a1 1 0 0 1 1.409-.123a7.501 7.501 0 0 1-3.957 13.195l.842.843a1 1 0 0 1-1.414 1.414l-2.5-2.5a1 1 0 0 1 0-1.414l2.5-2.5a1 1 0 0 1 1.414 1.414l-.701.701a5.502 5.502 0 0 0 2.53-9.621a1 1 0 0 1-.123-1.41" clip-rule="evenodd" />
		<defs>
			<linearGradient id="SVGJZgUOdCP" x1="14" x2="6" y1="16.5" y2="0" gradientUnits="userSpaceOnUse">
				<stop stop-color="#22918b" />
				<stop offset="1" stop-color="#20ac9d" />
			</linearGradient>
		</defs>
	</g>
</svg>
