<svg xmlns="http://www.w3.org/2000/svg" viewBox="0 0 20 20">
	<g fill="none">
		<path fill="url(#SVGbTzkqb2t)" d="M17 6H3v8.5A2.5 2.5 0 0 0 5.5 17h9a2.5 2.5 0 0 0 2.5-2.5z" />
		<path fill="url(#SVGBQaaD6nJ)" d="M17 6H3v8.5A2.5 2.5 0 0 0 5.5 17h9a2.5 2.5 0 0 0 2.5-2.5z" />
		<path fill="url(#SVG8pHbKctU)" fill-opacity=".3" d="M17 6H3v8.5A2.5 2.5 0 0 0 5.5 17h9a2.5 2.5 0 0 0 2.5-2.5z" />
		<path fill="url(#SVGflld8dUk)" d="M17 5.5A2.5 2.5 0 0 0 14.5 3h-9A2.5 2.5 0 0 0 3 5.5V7h14z" />
		<path fill="url(#SVGVoDsPd0j)" d="M19 14.5a4.5 4.5 0 1 0-9 0a4.5 4.5 0 0 0 9 0" />
		<path fill="url(#SVGLzqf7boU)" d="M16.5 11.5a.5.5 0 0 1 .5.5v1.5a.5.5 0 0 1-.5.5H15a.5.5 0 0 1 0-1h.468a2 2 0 0 0-2.383.336a.5.5 0 0 1-.706-.707A3 3 0 0 1 16 12.152V12a.5.5 0 0 1 .5-.5m-.876 5.532A3 3 0 0 1 13 16.848V17a.5.5 0 0 1-1 0v-1.5a.5.5 0 0 1 .5-.5H14a.5.5 0 0 1 0 1h-.468q.075.042.155.077a2 2 0 0 0 2.227-.413a.5.5 0 0 1 .707.707c-.284.285-.624.51-.997.66" />
		<defs>
			<linearGradient id="SVGbTzkqb2t" x1="8" x2="11.5" y1="6" y2="17" gradientUnits="userSpaceOnUse">
				<stop stop-color="#b3e0ff" />
				<stop offset="1" stop-color="#8cd0ff" />
			</linearGradient>
			<linearGradient id="SVGBQaaD6nJ" x1="11.5" x2="13.5" y1="10.5" y2="19.5" gradientUnits="userSpaceOnUse">
				<stop stop-color="#dcf8ff" stop-opacity="0" />
				<stop offset="1" stop-color="#ff6ce8" stop-opacity=".7" />
			</linearGradient>
			<linearGradient id="SVGflld8dUk" x1="3.563" x2="4.904" y1="3" y2="9.816" gradientUnits="userSpaceOnUse">
				<stop stop-color="#0094f0" />
				<stop offset="1" stop-color="#2764e7" />
			</linearGradient>
			<linearGradient id="SVGVoDsPd0j" x1="10.321" x2="16.532" y1="11.688" y2="18.141" gradientUnits="userSpaceOnUse">
				<stop stop-color="#52d17c" />
				<stop offset="1" stop-color="#22918b" />
			</linearGradient>
			<linearGradient id="SVGLzqf7boU" x1="12" x2="16.142" y1="11" y2="17.238" gradientUnits="userSpaceOnUse">
				<stop stop-color="#fff" />
				<stop offset="1" stop-color="#e3ffd9" />
			</linearGradient>
			<radialGradient id="SVG8pHbKctU" cx="0" cy="0" r="1" gradientTransform="rotate(90 -.5 15)scale(6.5)" gradientUnits="userSpaceOnUse">
				<stop offset=".535" stop-color="#4a43cb" />
				<stop offset="1" stop-color="#4a43cb" stop-opacity="0" />
			</radialGradient>
		</defs>
	</g>
</svg>
