<svg xmlns="http://www.w3.org/2000/svg" width="32" height="32" viewBox="0 0 24 24"><!-- Icon from Unicons Monochrome by Iconscout - https://github.com/Iconscout/unicons/blob/master/LICENSE --><path fill="currentColor" d="M6 23H2a1 1 0 0 1-1-1v-6a1 1 0 0 1 1-1h4a1 1 0 0 1 1 1v6a1 1 0 0 1-1 1" opacity=".25"/><path fill="currentColor" d="M14 23h-4a1 1 0 0 1-1-1V10a1 1 0 0 1 1-1h4a1 1 0 0 1 1 1v12a1 1 0 0 1-1 1" opacity=".5"/><path fill="currentColor" d="M22 23h-4a1 1 0 0 1-1-1V2a1 1 0 0 1 1-1h4a1 1 0 0 1 1 1v20a1 1 0 0 1-1 1"/></svg>