<svg xmlns="http://www.w3.org/2000/svg" viewBox="0 0 100 100" width="100%" height="100%">

  <circle cx="50" cy="50" r="48" fill="#4FD1C5" />
  <circle cx="50" cy="50" r="42" fill="#E6FFFA" />
  
    <rect x="35" y="25" width="30" height="40" rx="4" fill="#2D3748" />
    <rect x="40" y="30" width="20" height="25" rx="2" fill="#EDF2F7" />
    <rect x="45.0" y="59" width="10" height="2" rx="1" fill="#EDF2F7" />
    
  <!-- Wings/Pages -->
  <path d="M 35 40 Q 15 30 5 50 Q 15 40 35 50 Z" fill="#319795" />
  <path d="M 65 40 Q 85 30 95 50 Q 85 40 65 50 Z" fill="#319795" />
  
    <polyline points="33.0,83.0 33.0,70.0 42.0,83.0 42.0,70.0" stroke="#2D3748" stroke-width="3" fill="none" stroke-linejoin="round" stroke-linecap="round" />
    <polyline points="51.0,70.0 45.0,70.0 45.0,83.0 51.0,83.0" stroke="#2D3748" stroke-width="3" fill="none" stroke-linejoin="round" stroke-linecap="round" />
    <line x1='45.0' y1='76.5' x2='50.0' y2='76.5' stroke="#2D3748" stroke-width="3" stroke-linecap="round" />
    <circle cx="61.0" cy="76.5" r="6.5" stroke="#2D3748" stroke-width="3" fill="none" />
    

</svg>