<?xml version="1.0" encoding="UTF-8"?>
<svg xmlns="http://www.w3.org/2000/svg" viewBox="0 0 1434.09 1232.4" width="100%" height="100%">
  <defs>
    <clipPath id="clippath">
      <path fill="none" d="m776.4,72.59c-59.34,0-107.9,48.65-107.9,108.1v713.95c0,59.45,48.56,108.1,107.9,108.1h524.75c59.34,0,107.9-48.65,107.9-108.1V180.7c0-59.45-48.56-108.1-107.9-108.1h-524.75Z"/>
    </clipPath>
  </defs>
  <path fill="#000000" d="m1326.2,1002.75h-499.71c-59.34,0-107.9-48.65-107.9-108.1V180.7c0-59.45,48.56-108.1,107.9-108.1h499.71c59.34,0,107.9,48.65,107.9,108.1v713.95c0,59.45-48.56,108.1-107.9,108.1"/>
  <path fill="#ffffff" d="m1301.15,1002.75h-499.71c-59.34,0-107.9-48.65-107.9-108.1V180.7c0-59.45,48.56-108.1,107.9-108.1h499.71c59.34,0,107.9,48.65,107.9,108.1v713.95c0,59.45-48.56,108.1-107.9,108.1"/>
  <path fill="#000000" d="m1276.11,1002.75h-499.71c-59.34,0-107.9-48.65-107.9-108.1V180.7c0-59.45,48.56-108.1,107.9-108.1h499.71c59.34,0,107.9,48.65,107.9,108.1v713.95c0,59.45-48.56,108.1-107.9,108.1"/>
  
  <g clip-path="url(#clippath)">
      <path fill="#ffffff" d="m762.57,636.81l63.92-53.49,63.92,53.49V.84h-127.84v635.97Z"/>
      <path fill="#ffffff" d="m1050.78,734.7c-105.26,0-190.88,85.79-190.88,191.25s85.63,191.25,190.88,191.25,190.88-85.79,190.88-191.25-85.63-191.25-190.88-191.25m0,497.7c-168.65,0-305.85-137.46-305.85-306.45s137.2-306.45,305.85-306.45,305.85,137.46,305.85,306.45-137.2,306.45-305.85,306.45"/>
      <path fill="#ffffff" d="m1373.92,636.81c-44.95.09-91.84-.19-107.05,0-88.49,1.2-90.47-16.09-118.95-38.87-43.49-34.76-142.72-133.6-191.37-178.77-16.58-15.41-25.97-33.32-25.97-50.08v-13.65c0-22.29,8.38-43.8,23.47-60.2L1225.79,0h166.43l-333.02,356.41c28.42,33.5,124.1,126.7,247.99,232.58,25.99,22.22,45.98,39,66.73,47.83"/>
  </g>
  
  <g>
    <path fill="#000000" stroke="#1d1d1b" stroke-miterlimit="10" stroke-width="14" d="m7,575.59h119.32c5.02,1.21,8.63,4.42,10.85,9.64l27.72,71.11c1.61,4.22,3.62,8.64,6.03,13.26l37.36,100.03,1.21-18.08v-157.88c0-5.82.8-11.85,2.41-18.08h119.32c3.01,4.22,4.62,9.44,4.82,15.67v513.42l-16.87,2.41h-100.03c-5.42-.4-9.44-3.21-12.05-8.44l-72.31-202.47-1.21,210.91H9.41l-2.41-18.08v-513.42Zm12.05,10.85v509.8h102.44v-263.94l4.82,7.23,90.39,243.45c1.61,4.62,4.02,9.04,7.23,13.26h98.83l1.21-3.62v-506.19h-97.62c-3.01,4.22-4.62,9.44-4.82,15.67v230.19l-6.03-6.03-86.77-225.37c-1.61-4.82-3.62-9.64-6.03-14.46H19.05Z"/>
    <path fill="#000000" stroke="#1d1d1b" stroke-miterlimit="10" stroke-width="14" d="m359.22,575.59h280.81l-38.57,69.9-4.82,10.85c-2.01,3.22-4.02,6.83-6.03,10.85l-18.08,32.54-83.16,1.21c-1.81,3.62-3.01,7.64-3.62,12.05v50.62c0,4.82.8,9.64,2.41,14.46h108.47l-20.49,39.77c-2.21,3.01-4.22,6.63-6.03,10.85l-13.26,20.49-4.82,12.05c-2.21,3.01-4.22,6.63-6.03,10.85-2.21,3.22-4.22,6.83-6.03,10.85-2.21,3.22-4.22,6.83-6.03,10.85l-6.03,9.64-33.75,1.21c-4.62.2-7.43,2.61-8.44,7.23v67.49l13.26,2.41h141.01l-63.88,115.7c-1.81,3.62-4.62,6.83-8.44,9.64h-208.5v-531.5Zm12.05,10.85v503.78c1.61,4.02,4.82,6.03,9.64,6.03h172.34c4.02,0,8.03-1.21,12.05-3.62l6.03-9.64,4.82-10.85,43.39-78.34-2.41-1.21h-141.01c-1.21-4.22-2.01-9.04-2.41-14.46v-78.34c.8-4.22,3.62-6.63,8.44-7.23h32.54c3.41-1,6.63-3.01,9.64-6.03l37.36-72.31,6.03-9.64,4.82-10.85-6.03-3.62h-78.34c-4.82,0-9.64-.8-14.46-2.41v-94.01c3.62-2.41,7.63-4.02,12.05-4.82h78.34l6.03-8.44,49.41-92.8-13.26-1.21h-235.02Z"/>
  </g>
</svg>