<svg width="48" height="48" viewBox="0 0 48 48" fill="none" xmlns="http://www.w3.org/2000/svg">
<path d="M9.07103 10.4277H6.35668C5.60714 10.4277 4.99951 11.0354 4.99951 11.7849V40.2855C4.99951 41.0351 5.60714 41.6427 6.35668 41.6427H9.07103C9.82058 41.6427 10.4282 41.0351 10.4282 40.2855V11.7849C10.4282 11.0354 9.82058 10.4277 9.07103 10.4277Z" stroke="black" stroke-width="2.71435" stroke-linejoin="round"/>
<path d="M11.7852 21.2832H22.6425M11.7852 36.2121H22.6425" stroke="black" stroke-width="2.71435" stroke-linecap="round" stroke-linejoin="round"/>
<path d="M21.2854 15.8574H13.1423C12.3928 15.8574 11.7852 16.465 11.7852 17.2146V40.2865C11.7852 41.0361 12.3928 41.6437 13.1423 41.6437H21.2854C22.0349 41.6437 22.6425 41.0361 22.6425 40.2865V17.2146C22.6425 16.465 22.0349 15.8574 21.2854 15.8574Z" stroke="black" stroke-width="2.71435" stroke-linejoin="round"/>
<path d="M30.7859 6.35742H25.3572C24.6076 6.35742 24 6.96505 24 7.71459V40.2867C24 41.0363 24.6076 41.6439 25.3572 41.6439H30.7859C31.5354 41.6439 32.143 41.0363 32.143 40.2867V7.71459C32.143 6.96505 31.5354 6.35742 30.7859 6.35742Z" stroke="black" stroke-width="2.71435" stroke-linejoin="round"/>
<path d="M38.1192 10.4369L34.6924 10.7974C33.7491 10.8966 33.0655 11.7788 33.1715 12.7568L36.1335 40.0351C36.2404 41.0131 37.098 41.7316 38.0412 41.6332L41.4681 41.2727C42.4113 41.1735 43.095 40.2913 42.9889 39.3133L40.0311 12.0392C39.92 11.0569 39.0625 10.3376 38.1192 10.4369Z" stroke="black" stroke-width="2.71435" stroke-linejoin="round"/>
</svg>
