<svg width="48" height="48" viewBox="0 0 48 48" fill="none" xmlns="http://www.w3.org/2000/svg">
<g clip-path="url(#clip0_1168_306)">
<path d="M21.2454 10.8654C20.4311 10.8654 19.7072 10.8956 19.0739 10.9559C18.4707 11.0162 17.9579 11.1218 17.5357 11.2726C17.1436 11.4234 16.842 11.6345 16.6309 11.906C16.4198 12.1472 16.2841 12.479 16.2237 12.9012L15.7713 17.0181H12.6498V7.8796H36.5817V11.4536L17.3547 39.4119L16.088 37.0142H27.9409C29.1775 37.0142 30.1727 36.9538 30.9267 36.8332C31.7109 36.7126 32.2839 36.5165 32.6459 36.2451C33.0379 35.9435 33.2641 35.5212 33.3245 34.9784L33.8673 29.9115H37.0341V40H11.7902V36.2903L30.5196 9.0106L31.7411 10.8654H21.2454Z" fill="black"/>
</g>
<defs>
<clipPath id="clip0_1168_306">
<rect width="48" height="48" fill="white"/>
</clipPath>
</defs>
</svg>
