<svg xmlns="http://www.w3.org/2000/svg" width="32" height="32" viewBox="0 0 48 48"><!-- Icon from Plump free icons by Streamline - https://creativecommons.org/licenses/by/4.0/ --><g fill="none" stroke="currentColor" stroke-linejoin="round" stroke-width="3"><path d="M13.45 8.359c-.77-.914-2.099-.896-3.013-.127C5.887 12.057 3 17.77 3 24.151C3 35.666 12.402 45 24 45s21-9.335 21-20.85c0-6.382-2.888-12.094-7.437-15.919c-.914-.769-2.243-.787-3.013.127a7.2 7.2 0 0 0-1.578 3.246c-.171.873.272 1.714.904 2.34C36.46 16.502 38.5 20.168 38.5 24.15C38.5 32 32 38.5 24 38.5S9.5 32 9.5 24.15c0-3.983 2.04-7.649 4.624-10.207c.632-.625 1.075-1.466.904-2.339A7.2 7.2 0 0 0 13.45 8.36Z"/><path d="M20.592 23.22c.035 1.389.86 2.606 2.242 2.73A13 13 0 0 0 24 26a13 13 0 0 0 1.166-.05c1.383-.124 2.207-1.341 2.242-2.73c.044-1.76.092-4.611.092-8.72s-.048-6.96-.092-8.72c-.035-1.389-.86-2.606-2.242-2.73A13 13 0 0 0 24 3a13 13 0 0 0-1.166.05c-1.383.124-2.207 1.341-2.242 2.73c-.044 1.76-.092 4.611-.092 8.72s.048 6.96.092 8.72Z"/></g></svg>