<svg xmlns="http://www.w3.org/2000/svg" width="32" height="32" viewBox="0 0 48 48"><!-- Icon from Plump free icons by Streamline - https://creativecommons.org/licenses/by/4.0/ --><path fill="currentColor" fill-rule="evenodd" d="M10.793 4.904c2.807-.203 7.123-.406 13.16-.406c6.039 0 10.355.203 13.161.406c1.55.112 2.728 1.284 2.847 2.862c.483 6.388.48 12.771.476 19.239c0 2.236-.002 4.482.017 6.742a1.984 1.984 0 0 1-2.006 1.993a918 918 0 0 0-14.494-.102c-7.34 0-12.187.066-14.912.12c-.49.01-1.016.077-1.542.212V21.044c0-5.927.226-10.365.447-13.278c.12-1.578 1.297-2.75 2.846-2.862M3.5 21.044v20.547q.004.68.068 1.267c.343 3.206 3.315 4.428 5.536 4.471c11.129.217 22.305.269 33.457-.068a2 2 0 0 0-.12-3.998l-.888.026v-4.403a5.98 5.98 0 0 0 2.9-5.172a738 738 0 0 1-.015-6.584c.004-6.51.007-13.112-.489-19.666c-.267-3.53-2.998-6.293-6.546-6.55c-2.91-.21-7.322-.416-13.45-.416c-6.126 0-10.539.206-13.448.417c-3.549.256-6.28 3.018-6.547 6.55c-.228 3.011-.458 7.55-.458 13.58m9.237-9.761a2.5 2.5 0 0 1 2.5-2.5h17.527a2.5 2.5 0 0 1 0 5H15.237a2.5 2.5 0 0 1-2.5-2.5m2.5 5.309a2.5 2.5 0 0 0 0 5H24a2.5 2.5 0 0 0 0-5z" clip-rule="evenodd"/></svg>