<svg xmlns="http://www.w3.org/2000/svg" width="32" height="32" viewBox="0 0 48 48"><!-- Icon from Plump free icons by Streamline - https://creativecommons.org/licenses/by/4.0/ --><path fill="currentColor" fill-rule="evenodd" d="M23.51 2.247c-3.071-1.522-6.444.625-6.683 3.899c-.148 2.038-.315 4.82-.436 8.235a216 216 0 0 0-1.786-1.015c-1.357-.762-3.368-.924-4.831.526a11 11 0 0 0-1.009 1.156a7.3 7.3 0 0 0-1.032 1.88c-.73 1.973.366 3.716 1.55 4.578a166 166 0 0 0 3.543 2.493a160 160 0 0 0-3.543 2.493c-1.184.861-2.28 2.604-1.55 4.578c.214.577.539 1.23 1.032 1.88c.348.457.69.84 1.009 1.155c1.463 1.45 3.474 1.289 4.831.526c.45-.252 1.034-.584 1.786-1.015c.12 3.415.288 6.197.436 8.235c.239 3.274 3.612 5.421 6.683 3.899c3.697-1.832 9.755-5.152 15.251-9.634c2.476-2.018 2.233-5.757-.247-7.567a200 200 0 0 0-6.51-4.55a200 200 0 0 0 6.51-4.55c2.48-1.811 2.723-5.55.247-7.568C33.265 7.4 27.207 4.079 23.51 2.247m-2.693 4.19c.023-.317.177-.508.335-.602c.152-.09.348-.12.582-.004c3.567 1.768 9.33 4.935 14.5 9.15c.35.286.384.899-.079 1.237a202 202 0 0 1-8.87 6.104a2 2 0 0 0 0 3.353a202 202 0 0 1 8.87 6.105c.463.337.43.95.079 1.236c-5.17 4.215-10.933 7.382-14.5 9.15c-.234.116-.43.087-.582-.004c-.158-.094-.312-.285-.335-.601c-.19-2.612-.414-6.496-.524-11.4a2 2 0 0 0-3.006-1.683a356 356 0 0 1-4.64 2.666a.6.6 0 0 1-.125.052a7 7 0 0 1-.572-.667a3.3 3.3 0 0 1-.413-.714a.6.6 0 0 1 .1-.089c1.063-.773 2.948-2.11 5.866-4.066a2 2 0 0 0 0-3.323c-2.918-1.955-4.803-3.292-5.867-4.066a.6.6 0 0 1-.099-.089c.095-.226.227-.47.413-.714c.204-.268.398-.489.572-.667a.6.6 0 0 1 .124.053c.892.5 2.35 1.332 4.641 2.666a2 2 0 0 0 3.006-1.684c.11-4.904.333-8.787.524-11.4m4.234 4.177l-.532.846l-.998-.076a1 1 0 0 1 1.53-.77m-.532.846l-.998-.076v.012l-.003.033l-.01.13l-.037.5a531 531 0 0 0-.506 7.64a1 1 0 0 0 1.517.913c.798-.484 1.777-1.138 2.772-1.803l.604-.404c1.215-.81 2.408-1.59 3.365-2.12a1 1 0 0 0 .056-1.716a691 691 0 0 0-5.643-3.587l-.43-.271l-.116-.072l-.03-.019l-.007-.005l-.002-.001zm-1.071 15.923a1 1 0 0 1 1.034.002c.798.484 1.777 1.138 2.772 1.803l.002.002l.602.402c1.215.81 2.408 1.59 3.365 2.12a1 1 0 0 1 .056 1.716a686 686 0 0 1-5.643 3.586l-.43.271l-.116.072l-.03.019l-.007.005l-.002.001l-.532-.846l-.998.076V36.6l-.003-.033l-.01-.13l-.037-.5a527 527 0 0 1-.506-7.639a1 1 0 0 1 .483-.915m1.07 9.153l.533.846a1 1 0 0 1-1.53-.77z" clip-rule="evenodd"/></svg>