<svg width="48" height="48" viewBox="0 0 48 48" fill="none" xmlns="http://www.w3.org/2000/svg">
<path d="M21.176 42.826C20.392 42.042 20 41.1 20 40C20 39.3 20.1833 38.65 20.55 38.05C20.9167 37.45 21.4 36.9667 22 36.6V32H16C14.9 32 13.9587 31.6087 13.176 30.826C12.3933 30.0433 12.0013 29.1013 12 28V23.4C11.4 23.1 10.9167 22.65 10.55 22.05C10.1833 21.45 10 20.7667 10 20C10 18.9 10.392 17.958 11.176 17.174C11.96 16.39 12.9013 15.9987 14 16C15.0987 16.0013 16.0407 16.3933 16.826 17.176C17.6113 17.9587 18.0027 18.9 18 20C18 20.7667 17.8167 21.4333 17.45 22C17.0833 22.5667 16.6 23.0333 16 23.4V28H22V12H18L24 4L30 12H26V28H32V24H30V16H38V24H36V28C36 29.1 35.6087 30.042 34.826 30.826C34.0433 31.61 33.1013 32.0013 32 32H26V36.6C26.6333 36.9333 27.1253 37.4 27.476 38C27.8267 38.6 28.0013 39.2667 28 40C28 41.1 27.6087 42.042 26.826 42.826C26.0433 43.61 25.1013 44.0013 24 44C22.8987 43.9987 21.9573 43.6073 21.176 42.826Z" fill="black"/>
</svg>
