<svg width="48" height="48" viewBox="0 0 48 48" fill="none" xmlns="http://www.w3.org/2000/svg">
<path d="M22.576 23.9148C22.192 23.5409 22 23.0781 22 22.5263V6.94737C22 6.39562 22.192 5.93345 22.576 5.56085C22.96 5.18825 23.4347 5.0013 24 5.00001C24.5653 4.99871 25.0407 5.18566 25.426 5.56085C25.8113 5.93604 26.0027 6.39822 26 6.94737V22.5263C26 23.0781 25.808 23.5409 25.424 23.9148C25.04 24.2887 24.5653 24.475 24 24.4737C23.4347 24.4724 22.96 24.2854 22.576 23.9128M16.976 40.6135C14.792 39.6878 12.892 38.4383 11.276 36.8648C9.66001 35.2913 8.37601 33.4413 7.42401 31.3148C6.47201 29.1883 5.99734 26.9079 6.00001 24.4737C6.00001 22.4939 6.33334 20.5705 7.00001 18.7036C7.66668 16.8368 8.63334 15.125 9.90001 13.5684C10.2667 13.114 10.7333 12.8953 11.3 12.9122C11.8667 12.929 12.3667 13.1478 12.8 13.5684C13.1667 13.9254 13.3333 14.3636 13.3 14.8829C13.2667 15.4022 13.0833 15.889 12.75 16.3434C11.85 17.5118 11.1667 18.7939 10.7 20.1895C10.2333 21.5851 10 23.0132 10 24.4737C10 28.2711 11.3587 31.4926 14.076 34.1385C16.7933 36.7843 20.1013 38.1066 24 38.1053C27.8987 38.104 31.2073 36.7817 33.926 34.1385C36.6447 31.4952 38.0027 28.2736 38 24.4737C38 22.9807 37.7753 21.528 37.326 20.1155C36.8767 18.703 36.168 17.4132 35.2 16.2461C34.8667 15.8241 34.6833 15.362 34.65 14.8595C34.6167 14.3571 34.7833 13.9267 35.15 13.5684C35.55 13.179 36.0333 12.9764 36.6 12.9608C37.1667 12.9453 37.6333 13.1478 38 13.5684C39.3 15.1263 40.292 16.8303 40.976 18.6803C41.66 20.5303 42.0013 22.4614 42 24.4737C42 26.9079 41.5253 29.1883 40.576 31.3148C39.6267 33.4413 38.3433 35.2913 36.726 36.8648C35.1087 38.4383 33.2087 39.6878 31.026 40.6135C28.8433 41.5391 26.5013 42.0013 24 42C21.4987 41.9987 19.1573 41.5365 16.976 40.6135Z" fill="black"/>
</svg>
