<?xml version="1.0" standalone="no"?>
<!DOCTYPE svg PUBLIC "-//W3C//DTD SVG 1.0//EN" "http://www.w3.org/TR/2001/REC-SVG-20010904/DTD/svg10.dtd">
<svg xmlns="http://www.w3.org/2000/svg" xmlns:xlink="http://www.w3.org/1999/xlink" id="body_1" width="800" height="800" viewBox="0 0 1024 1024">

<defs>
				<clipPath  id="1">

					<path  clip-rule="evenodd"  d="M0 0L1024 0L1024 1024L0 1024z" />				</clipPath>
</defs>

<g transform="matrix(1.3333334 0 0 1.3333334 0 0)">
	<g transform="matrix(0.75 0 0 0.75 0 0)">
		<g transform="matrix(1 0 0 1 0 0)">
			<g clip-path="url(#1)" >
				<g transform="translate(51.2 51.2) scale(0.9)">
				<g>
					<path  d="M895.47 0.7L128.53 0.7C 57.97 0.7 0.71 57.96 0.71 128.52L0.71 128.52L0.71 895.47003C 0.71 966.03 57.96 1023.30005 128.53 1023.30005L128.53 1023.30005L895.45996 1023.30005C 966.02997 1023.30005 1023.27997 966.04004 1023.27997 895.47003L1023.27997 895.47003L1023.27997 128.52C 1023.27997 57.960007 966.02997 0.69000244 895.45996 0.69000244L895.45996 0.69000244L895.47 0.7zM537.56 51.83L729.31 51.83L729.31 243.57L537.56 243.57L537.56 51.83zM51.82 128.52C 51.82 86.270004 86.28 51.820007 128.53 51.820007L128.53 51.820007L486.44 51.820007L486.44 243.56001L51.82 243.56001L51.82 128.52002zM51.82 294.69L729.31 294.69L729.31 486.43L51.82 486.43L51.82 294.69zM486.44 537.56L486.44 729.3L294.69 729.3L294.69 537.56L486.44 537.56zM243.58 972.17L128.54001 972.17C 86.29001 972.17 51.83001 937.72 51.83001 895.47L51.83001 895.47L51.83001 780.43L243.58002 780.43L243.58002 972.17zM243.58 729.3L51.82 729.3L51.82 537.56L243.57 537.56L243.57 729.3zM972.18 895.47C 972.18 937.72 937.72 972.17 895.47 972.17L895.47 972.17L294.69 972.17L294.69 780.43L972.18 780.43L972.18 895.47zM972.18 729.3L537.56 729.3L537.56 537.56L972.18 537.56L972.18 729.3zM972.18 486.43L780.43 486.43L780.43 294.69L972.18 294.69L972.18 486.43zM972.18 243.56L780.43 243.56L780.43 51.83L895.47 51.83C 937.72 51.83 972.18 86.270004 972.18 128.53L972.18 128.53L972.18 243.57z" stroke="none"  fill="#000000" fill-rule="nonzero" />
					<path  d="M243.58 780.43L243.58 972.17L128.54001 972.17C 86.29001 972.17 51.83001 937.73 51.83001 895.48L51.83001 895.48L51.83001 780.44L243.58002 780.44L243.58 780.43z" stroke="none"  fill="#FFFFFF" fill-rule="nonzero" />
					<path  d="M486.44 537.56L294.69 537.56L294.69 729.3L486.44 729.3L486.44 537.56z" stroke="none"  fill="#FFFFFF" fill-rule="nonzero" />
					<path  d="M972.18 294.7L780.43 294.7L780.43 486.44L972.18 486.44L972.18 294.7z" stroke="none"  fill="#FFFFFF" fill-rule="nonzero" />
					<path  d="M729.31 51.83L537.56 51.83L537.56 243.57L729.31 243.57L729.31 51.83z" stroke="none"  fill="#FFFFFF" fill-rule="nonzero" />
					<path  d="M972.18 128.52L972.18 243.56L780.43 243.56L780.43 51.83L895.47 51.83C 937.72 51.83 972.18 86.270004 972.18 128.53L972.18 128.53L972.18 128.52z" stroke="none"  fill="#888888" fill-rule="nonzero" />
					<path  d="M243.58 537.56L51.82 537.56L51.82 729.3L243.57 729.3L243.57 537.56L243.58 537.56z" stroke="none"  fill="#888888" fill-rule="nonzero" />
					<path  d="M972.18 780.43L972.18 895.47C 972.18 937.72 937.72 972.16 895.47 972.16L895.47 972.16L294.69 972.16L294.69 780.42L972.18 780.42L972.18 780.43z" stroke="none"  fill="#888888" fill-rule="nonzero" />
					<path  d="M972.18 537.56L537.56 537.56L537.56 729.3L972.18 729.3L972.18 537.56z" stroke="none"  fill="#888888" fill-rule="nonzero" />
					<path  d="M729.31 294.7L51.82 294.7L51.82 486.44L729.31 486.44L729.31 294.7z" stroke="none"  fill="#888888" fill-rule="nonzero" />
					<path  d="M486.44 51.83L486.44 243.57L51.82 243.57L51.82 128.53C 51.82 86.28 86.28 51.83 128.53 51.83L128.53 51.83L486.44 51.83z" stroke="none"  fill="#888888" fill-rule="nonzero" />
				</g>
				</g>
			</g>
		</g>
	</g>
</g>
</svg>
