<svg width="48" height="48" viewBox="0 0 48 48" fill="none" xmlns="http://www.w3.org/2000/svg">
<path d="M28.2926 42L26.8742 39.7954C30.6523 39.2707 33.6824 38.0265 35.9644 36.0628C38.2485 34.101 39.3905 31.7362 39.3905 28.9681C39.3905 27.2411 38.7673 25.6805 37.5209 24.2863C36.2765 22.8921 34.6126 21.8755 32.5291 21.2365C31.2356 24.3026 29.7631 27.0237 28.1114 29.3998C26.4598 31.776 24.6423 33.8234 22.6591 35.5422L23.1289 37.1743C23.2885 37.7275 23.4706 38.3103 23.6753 38.9227L21.1364 39.5994C21.0218 39.2075 20.9133 38.8196 20.811 38.4358C20.7087 38.0521 20.5859 37.6101 20.4426 37.11C18.838 38.0204 17.4371 38.6767 16.2398 39.0788C15.0446 39.481 13.8841 39.6821 12.7585 39.6821C11.3954 39.6821 10.2616 39.185 9.35693 38.1909C8.45231 37.1967 8 35.9842 8 34.5532C8 31.8096 8.96397 29.2182 10.8919 26.7788C12.8219 24.3414 15.4969 22.3184 18.9168 20.7099C18.968 19.5443 19.0386 18.3909 19.1287 17.2498C19.2187 16.1087 19.3149 14.9553 19.4172 13.7897C17.827 13.8408 16.2296 13.8377 14.625 13.7806C13.0184 13.7234 11.3729 13.6387 9.68849 13.5264L9.61174 10.939C10.9421 11.1554 12.4044 11.3024 13.9987 11.3799C15.5931 11.4575 17.5139 11.4759 19.7611 11.4351C19.8634 10.5165 19.978 9.6101 20.1049 8.716C20.2318 7.82189 20.2646 6.91656 20.2032 6L23.0951 6.07655C22.8167 6.94412 22.611 7.82393 22.478 8.716C22.3429 9.6101 22.1986 10.5103 22.0451 11.4167C25.1315 11.2636 27.9088 11.0441 30.3771 10.7584C32.8453 10.4726 35.1591 10.0939 37.3183 9.62235L37.395 12.1301C34.8797 12.5384 32.3398 12.8732 29.7753 13.1345C27.2109 13.3958 24.5656 13.603 21.8395 13.7561C21.6962 14.7829 21.5928 15.7974 21.5294 16.7997C21.4659 17.802 21.382 18.8176 21.2777 19.8464C23.0255 19.3606 24.6956 19.0115 26.2879 18.7992C27.8802 18.5869 29.3998 18.5318 30.8468 18.6338C31.0003 18.0827 31.1159 17.5825 31.1937 17.1335C31.2694 16.6823 31.3533 16.2404 31.4454 15.8076L34.1071 16.4078C33.9925 16.7772 33.8656 17.1753 33.7264 17.6019C33.5872 18.0286 33.4204 18.5236 33.226 19.087C35.9153 19.8423 38.05 21.1304 39.63 22.9513C41.21 24.7721 42 26.8033 42 29.0447C42 32.2251 40.7515 34.988 38.2546 37.3335C35.7577 39.679 32.437 41.2345 28.2926 42ZM13.4492 37.0824C14.4377 37.0824 15.4406 36.8742 16.4578 36.4578C17.475 36.0413 18.615 35.3983 19.8777 34.5287C19.4807 32.5894 19.2054 30.6808 19.0519 28.8028C18.8984 26.9247 18.8217 25.0365 18.8217 23.138C16.1303 24.8344 14.0949 26.595 12.7155 28.42C11.336 30.245 10.6484 32.1056 10.6525 34.002C10.6525 34.8614 10.9185 35.5902 11.4507 36.1883C11.9828 36.7864 12.649 37.0845 13.4492 37.0824ZM22.0943 32.9303C23.8912 31.187 25.4672 29.31 26.822 27.2993C28.179 25.2866 29.3149 23.1207 30.2297 20.8017C28.8155 20.7221 27.3501 20.814 25.8335 21.0773C24.3149 21.3406 22.784 21.7356 21.2408 22.2623C21.1385 23.7851 21.161 25.408 21.3084 27.1309C21.4557 28.8538 21.7197 30.7869 22.0943 32.9303Z" fill="black"/>
</svg>
