<svg width="48" height="48" viewBox="0 0 48 48" fill="none" xmlns="http://www.w3.org/2000/svg">
<path d="M28.6855 17.8057L34.1943 23.3057L34.3896 23.5L34.1943 23.6943L28.6855 29.1943L28.4785 29.4014L28.2852 29.1816L27.7256 28.5469L27.5547 28.3535L27.7383 28.1709L31.7168 24.1982H15.7246V22.8018H31.7168L27.7383 18.8291L27.5547 18.6465L27.7256 18.4531L28.2852 17.8184L28.4785 17.5986L28.6855 17.8057Z" fill="black" stroke="black" stroke-width="0.55"/>
<path d="M38 8.33399C38.5523 8.33399 39 8.78172 39 9.33399V12.1299C39.067 12.1103 39.1375 12.097 39.21 12.0918C40.0838 12.0291 41.01 12 42 12C42.5521 12.0003 43 12.4479 43 13V36C43 36.5521 42.5521 36.9997 42 37C35.2598 37 31.1087 36.8731 26.8223 40.5889C26.7654 40.6382 26.7033 40.6786 26.6396 40.7129L26.6406 40.7149C25.0419 41.573 22.8832 41.4178 21.4404 40.7529L21.4092 40.7393V40.7373C21.3279 40.6991 21.2499 40.6506 21.1787 40.5889C16.892 36.8726 12.7407 37 6 37C5.44772 37 5 36.5523 5 36V13C5.00002 12.4477 5.44772 12 6 12C6.99021 12 7.91603 12.0291 8.79004 12.0918C8.86268 12.097 8.93284 12.1103 9 12.1299V9.33399C9.00002 8.78172 9.44772 8.33399 10 8.33399C13.2815 8.33399 15.6301 8.323 17.8164 9.05177C19.8426 9.7272 21.6548 11.0061 24 13.2666C26.3452 11.0061 28.1574 9.7272 30.1836 9.05177C32.3699 8.323 34.7185 8.33399 38 8.33399ZM41 14.0117C40.4243 14.0248 39.8765 14.0494 39.3535 14.0869C39.2308 14.0957 39.1115 14.0807 39 14.0479V32.001C38.9998 32.5531 38.5522 33.001 38 33.001C34.7294 33.001 32.525 33.3293 30.6006 34.0967C28.6697 34.8666 26.9386 36.1104 24.6553 38.0899C24.6467 38.0973 24.6368 38.1032 24.6279 38.1104C24.5998 38.1331 24.5708 38.1551 24.54 38.1748C24.5165 38.1899 24.4913 38.2019 24.4668 38.2149C24.451 38.2232 24.4363 38.2337 24.4199 38.2412H24.417C24.2927 38.2982 24.1591 38.3289 24.0234 38.332C24.0156 38.3322 24.0078 38.333 24 38.333C23.9919 38.333 23.9837 38.3322 23.9756 38.332C23.84 38.3288 23.7063 38.2983 23.582 38.2412H23.5801C23.5635 38.2335 23.5483 38.2234 23.5322 38.2149C23.5077 38.2018 23.4825 38.19 23.459 38.1748C23.4285 38.1552 23.4 38.1329 23.3721 38.1104C23.3632 38.1032 23.3533 38.0973 23.3447 38.0899C21.0614 36.1104 19.3303 34.8666 17.3994 34.0967C15.475 33.3293 13.2706 33.001 10 33.001C9.44782 33.001 9.00018 32.5531 9 32.001V14.0479C8.88865 14.0806 8.77005 14.0957 8.64746 14.0869C8.12412 14.0494 7.57613 14.0248 7 14.0117V35C13.0466 34.9917 17.7166 35.0145 22.3643 38.9736C23.331 39.3862 24.7045 39.4355 25.6143 38.9912C30.2687 35.0145 34.9445 34.9917 41 35V14.0117ZM37 10.335C34.209 10.3425 32.4438 10.4068 30.8164 10.9492C29.1104 11.5179 27.4744 12.6472 25.0098 15.0742C25.0416 16.3668 25.0574 18.0872 25.0664 20H22.9326C22.9414 18.0872 22.9575 16.3668 22.9893 15.0742C20.5249 12.6475 18.8895 11.5179 17.1836 10.9492C15.5562 10.4068 13.791 10.3425 11 10.335V31.0117C13.8952 31.0751 16.1117 31.4298 18.1396 32.2383C19.8299 32.9123 21.3434 33.8839 22.9805 35.1826C22.979 35.0035 22.9772 34.8151 22.9756 34.6182C22.9622 32.9465 22.9463 30.6562 22.9355 28.1846C22.9339 27.7938 22.933 27.3984 22.9316 27H25.0684C25.067 27.3984 25.0661 27.7938 25.0645 28.1846C25.0537 30.6562 25.0378 32.9465 25.0244 34.6182C25.0228 34.8151 25.02 35.0035 25.0186 35.1826C26.6558 33.8836 28.1699 32.9124 29.8604 32.2383C31.8883 31.4298 34.1048 31.0751 37 31.0117V10.335Z" fill="black"/>
</svg>
