<?xml version="1.0" encoding="UTF-8" standalone="no"?>
<svg xmlns="http://www.w3.org/2000/svg" version="1.1" width="48" height="48" viewBox="0 0 48 48">
  <line style="fill:none;stroke:#000000;stroke-width:2;stroke-linecap:butt;stroke-linejoin:miter;stroke-opacity:1" x1="14.64" y1="23.13" x2="33.68" y2="23.13"/>
  <polyline style="fill:none;stroke:#000000;stroke-width:2;stroke-linecap:butt;stroke-linejoin:miter;stroke-opacity:1" points="27.33 16.79 33.68 23.13 27.33 29.48"/>
  <path style="fill:none;stroke:#000000;stroke-width:2;stroke-linecap:round;stroke-linejoin:round;stroke-opacity:1" d="M24.08,13.26c5.64-5.64,7.76-5.64,14.81-5.64"/>
  <path style="fill:none;stroke:#000000;stroke-width:2;stroke-linecap:round;stroke-linejoin:round;stroke-opacity:1" d="M24.08,37.24c4.88-4.23,7.76-5.64,14.81-5.64"/>
  <line style="fill:none;stroke:#000000;stroke-width:2;stroke-linecap:round;stroke-linejoin:round;stroke-opacity:1" x1="38.89" y1="31.6" x2="38.89" y2="7.62"/>
  <path style="fill:none;stroke:#000000;stroke-width:2;stroke-linecap:round;stroke-linejoin:round;stroke-opacity:1" d="M24.14,28.56c-.01,2.89-.03,5.78-.06,8.68"/>
  <path style="fill:none;stroke:#000000;stroke-width:2;stroke-linecap:round;stroke-linejoin:round;stroke-opacity:1" d="M24.08,13.26c.04,1.44.06,2.89.07,4.34"/>
  <path style="fill:none;stroke:#000000;stroke-width:2;stroke-linecap:round;stroke-linejoin:round;stroke-opacity:1" d="M40.25,11.59c.89-.06,1.85-.09,2.88-.09M26.37,39.88c4.88-4.23,9.7-4.06,16.75-4.06M43.12,35.83V11.5"/>
  <path style="fill:none;stroke:#000000;stroke-width:2;stroke-linecap:round;stroke-linejoin:round;stroke-opacity:1" d="M24.08,13.26c-5.64-5.64-7.76-5.64-14.81-5.64"/>
  <path style="fill:none;stroke:#000000;stroke-width:2;stroke-linecap:round;stroke-linejoin:round;stroke-opacity:1" d="M24.08,37.24c-4.88-4.23-7.76-5.64-14.81-5.64"/>
  <line style="fill:none;stroke:#000000;stroke-width:2;stroke-linecap:round;stroke-linejoin:round;stroke-opacity:1" x1="9.27" y1="31.6" x2="9.27" y2="7.62"/>
  <path style="fill:none;stroke:#000000;stroke-width:2;stroke-linecap:round;stroke-linejoin:round;stroke-opacity:1" d="M24.02,28.56c.01,2.89.03,5.78.06,8.68"/>
  <path style="fill:none;stroke:#000000;stroke-width:2;stroke-linecap:round;stroke-linejoin:round;stroke-opacity:1" d="M24.08,13.26c-.04,1.44-.06,2.89-.07,4.34"/>
  <path style="fill:none;stroke:#000000;stroke-width:2;stroke-linecap:butt;stroke-linejoin:miter;stroke-opacity:1" d="M21.79,39.88c1.29.61,3.24.72,4.58,0"/>
  <path style="fill:none;stroke:#000000;stroke-width:2;stroke-linecap:round;stroke-linejoin:round;stroke-opacity:1" d="M7.91,11.59c-.89-.06-1.85-.09-2.88-.09M21.79,39.88c-4.88-4.23-9.7-4.06-16.75-4.06M5.04,35.83V11.5"/>
</svg>
