<?xml version="1.0" encoding="UTF-8" standalone="no"?>
<svg xmlns="http://www.w3.org/2000/svg" version="1.1" width="48" height="48" viewBox="0 0 48 48">
  <!-- raios -->
  <line style="fill:none;stroke:#000000;stroke-width:2;stroke-linecap:butt;stroke-linejoin:miter;stroke-opacity:1" x1="24" y1="2" x2="24" y2="7"/>
  <line style="fill:none;stroke:#000000;stroke-width:2;stroke-linecap:butt;stroke-linejoin:miter;stroke-opacity:1" x1="9" y1="9" x2="12.9" y2="12.9"/>
  <line style="fill:none;stroke:#000000;stroke-width:2;stroke-linecap:butt;stroke-linejoin:miter;stroke-opacity:1" x1="39" y1="9" x2="35.1" y2="12.9"/>
  <line style="fill:none;stroke:#000000;stroke-width:2;stroke-linecap:butt;stroke-linejoin:miter;stroke-opacity:1" x1="4" y1="21" x2="9" y2="21"/>
  <line style="fill:none;stroke:#000000;stroke-width:2;stroke-linecap:butt;stroke-linejoin:miter;stroke-opacity:1" x1="44" y1="21" x2="39" y2="21"/>
  <line style="fill:none;stroke:#000000;stroke-width:2;stroke-linecap:butt;stroke-linejoin:miter;stroke-opacity:1" x1="9" y1="33" x2="12.9" y2="29.1"/>
  <line style="fill:none;stroke:#000000;stroke-width:2;stroke-linecap:butt;stroke-linejoin:miter;stroke-opacity:1" x1="39" y1="33" x2="35.1" y2="29.1"/>
  <!-- corpo da lâmpada -->
  <path style="fill:none;stroke:#000000;stroke-width:2;stroke-linecap:round;stroke-linejoin:round;stroke-opacity:1" d="M16.5,30A10,10 0 1 1 31.5,30c-1,3-3,5-3,7.5h-9c0-2.5-2-4.5-3-7.5z"/>
  <!-- base -->
  <line style="fill:none;stroke:#000000;stroke-width:2;stroke-linecap:butt;stroke-linejoin:miter;stroke-opacity:1" x1="20" y1="41" x2="28" y2="41"/>
  <line style="fill:none;stroke:#000000;stroke-width:2;stroke-linecap:butt;stroke-linejoin:miter;stroke-opacity:1" x1="21.5" y1="45" x2="26.5" y2="45"/>
  <!-- filamento -->
  <path style="fill:none;stroke:#000000;stroke-width:2;stroke-linecap:round;stroke-linejoin:round;stroke-opacity:1" d="M21,30v-6l3-3 3,3v6"/>
</svg>
