<svg xmlns="http://www.w3.org/2000/svg" width="32" height="32" viewBox="0 0 24 24"><!-- Icon from Lineicons by Lineicons - https://github.com/LineiconsHQ/Lineicons/blob/main/LICENSE.md --><path fill="#000000" d="m12.808 6.938l1.654 1.654l-1.653 1.652zm0 10.123l1.654-1.654l-1.653-1.652zm-1.765-5.062L7.468 8.416L8.504 7.38l2.848 2.849V3.4l5.178 5.18L13.11 12l3.42 3.42l-5.179 5.178v-6.827L8.504 16.62l-1.036-1.037zM12 22c4.367 0 7.376-2.075 7.376-10c0-7.926-3.009-10-7.376-10c-4.366 0-7.377 2.075-7.377 10S7.633 22 12 22"/></svg>