<svg width="48" height="48" viewBox="0 0 48 48" fill="none" xmlns="http://www.w3.org/2000/svg">
<path d="M12.4833 30.7532C13.6723 30.7532 14.8127 31.2403 15.6535 32.1074C16.4942 32.9744 16.9666 34.1504 16.9666 35.3766C16.9666 37.8792 14.9512 40 12.4833 40C10.0566 40 8 37.8792 8 35.3766C8 34.1504 8.47235 32.9744 9.31313 32.1074C10.1539 31.2403 11.2942 30.7532 12.4833 30.7532ZM8 7C16.4869 7 24.6263 10.4768 30.6274 16.6655C36.6286 22.8542 40 31.2479 40 40H34.1799C34.1799 32.8397 31.4217 25.9726 26.512 20.9095C21.6023 15.8464 14.9434 13.0019 8 13.0019V7ZM8 19.0039C13.3998 19.0039 18.5784 21.2159 22.3966 25.1535C26.2148 29.091 28.3599 34.4315 28.3599 40H22.5398C22.5398 36.0233 21.008 32.2094 18.2812 29.3975C15.5545 26.5855 11.8562 25.0058 8 25.0058V19.0039Z" fill="black"/>
</svg>
