<svg width="48" height="48" viewBox="0 0 48 48" fill="none" xmlns="http://www.w3.org/2000/svg">
<path d="M24.1242 41C19.3665 41 15.3231 39.3375 11.9938 36.0125C8.66461 32.6874 7 28.6491 7 23.8974C7 19.5661 8.41274 15.8107 11.2382 12.631C14.0637 9.45137 17.5627 7.57436 21.7353 7C21.8509 7 21.9644 7.00428 22.0757 7.01283C22.187 7.02138 22.2961 7.03349 22.4032 7.04917C21.6811 8.05537 21.1096 9.17417 20.6886 10.4056C20.2676 11.6369 20.0572 12.9275 20.0572 14.2772C20.0572 18.0782 21.3886 21.3085 24.0514 23.9679C26.7142 26.6274 29.9492 27.9578 33.7565 27.9593C35.1136 27.9593 36.4072 27.749 37.6372 27.3286C38.8673 26.9082 39.9718 26.3374 40.9508 25.6162C40.9679 25.7231 40.98 25.8321 40.9872 25.9433C40.9943 26.0545 40.9986 26.1678 41 26.2832C40.452 30.4491 38.5862 33.943 35.4025 36.765C32.2189 39.5869 28.4608 40.9986 24.1242 41Z" fill="black"/>
</svg>
